<?xml version="1.0" encoding="UTF-8" standalone="no"?><!DOCTYPE svg PUBLIC "-//W3C//DTD SVG 1.1//EN" "http://www.w3.org/Graphics/SVG/1.1/DTD/svg11.dtd"><svg width="100%" height="100%" viewBox="0 0 2042 2042" version="1.1" xmlns="http://www.w3.org/2000/svg" xmlns:xlink="http://www.w3.org/1999/xlink" xml:space="preserve" xmlns:serif="http://www.serif.com/" style="fill-rule:evenodd;clip-rule:evenodd;stroke-linejoin:round;stroke-miterlimit:2;"><g id="Background"><rect id="Background1" serif:id="Background" x="-0" y="-0" width="2041.67" height="2041.67" style="fill:none;"/></g><rect id="Footer" x="0" y="2041.67" width="2041.67" height="190.678"/><path d="M2041.67,2041.67l-0,190.678l-2041.67,-0l0,-190.678l2041.67,-0Zm-2.084,2.083l-2037.5,0l0,186.511l2037.5,0l0,-186.511Z"/><rect id="Five" x="284.781" y="1599.96" width="980.781" height="186.815"/><path d="M1265.56,1599.96l-0,186.815l-980.781,0l-0,-186.815l980.781,0Zm-2.084,2.083l-976.614,0l-0,182.649l976.614,0l0,-182.649Z"/><rect id="Four" x="284.781" y="1263.69" width="1472.11" height="186.815"/><path d="M1756.89,1263.69l0,186.816l-1472.11,-0l-0,-186.816l1472.11,0Zm-2.083,2.084l-1467.94,-0l0,182.648l1467.94,0l-0,-182.648Z"/><rect id="Three" x="284.781" y="927.426" width="1472.11" height="186.815"/><path d="M1756.89,927.426l0,186.815l-1472.11,0l-0,-186.815l1472.11,-0Zm-2.083,2.083l-1467.94,-0l0,182.649l1467.94,-0l-0,-182.649Z"/><rect id="Two" x="284.781" y="591.158" width="1472.11" height="186.815"/><path d="M1756.89,591.158l0,186.815l-1472.11,0l-0,-186.815l1472.11,-0Zm-2.083,2.083l-1467.94,0l-0,182.649l1467.94,-0l-0,-182.649Z"/><rect id="One" x="284.781" y="254.89" width="1472.11" height="186.815"/><path d="M1756.89,254.89l0,186.816l-1472.11,-0l-0,-186.816l1472.11,0Zm-2.083,2.084l-1467.94,-0l-0,182.648l1467.94,0l-0,-182.648Z"/><rect id="Header" x="0" y="-208.333" width="2041.67" height="208.333"/><path d="M2041.67,-208.333l-0,208.333l-2041.67,-0l0,-208.333l2041.67,-0Zm-2.084,2.083l-2037.5,0l0,204.167l2037.5,-0l0,-204.167Z"/></svg>